<?xml version="1.0" encoding="UTF-8"?>
<svg id="Layer_1" xmlns="http://www.w3.org/2000/svg" version="1.1" viewBox="0 0 1000 1000">
  <!-- Generator: Adobe Illustrator 29.1.0, SVG Export Plug-In . SVG Version: 2.1.0 Build 142)  -->
  <defs>
    <style>
      .st0 {
        fill: #231f20;
      }
    </style>
  </defs>
  <path class="st0" d="M171.15,4.12v553.01c13.25-10.17,24.21-18.67,28.5-22.25V32.62h536.95v626.48H199.65v-82.28c16.32-20.12,32.62-40.41,38.01-45.63-3.03,11.97,2.86,24.43,7.98,32.38-.02.02-.04.04-.05.05-18.6,19.51-17.85,50.41,1.66,69,19.51,18.6,54.88,22.1,73.47,2.59,18.59-19.51,13.38-54.66-6.14-73.26-18.65-17.77-47.68-17.87-66.45-.8-5.09-8.11-10.75-20.66-6.39-31.82l-1.58-.61c4.39-4.28,8.7-8.59,12.95-12.92l.86,1.48c.41-.24,39.34-22.49,79.84-3.12-.06.07-.13.13-.2.2-18.59,19.51-17.85,50.41,1.66,69,19.51,18.6,54.88,22.1,73.47,2.59,18.6-19.51,13.38-54.66-6.14-73.26-18.57-17.7-47.44-17.86-66.22-1.01-34.45-17.12-67.98-4.9-79.72.49,10.82-11.14,21.2-22.39,31.12-33.64,64.37,20.38,240.5-18.05,240.5-18.05-95.62-41.67-206.55.39-236.38,13.31,23.23-26.71,43.93-53.35,61.91-78.42,1.09-.52,3.36-1.77,6.55-3.44,68.74,16.38,234.35-19.74,234.35-19.74-80.36-35.02-171.53-10.9-216.29,5.36-5.91,1.6-11.15,3.33-15.49,4.92,12.21-17.53,23.05-34.12,32.46-49.2,9.67-15.49,18.31-30.17,25.95-43.66,64.07,20.63,240.86-17.94,240.86-17.94-98.54-42.94-213.33,3.04-238.87,14.4,26.33-46.92,39.9-78.71,40.07-79.12-.14.34-14.74,19.3-34.17,51.94,14.03-46.07,32.74-136.97-5.63-214.56,0,0-15.35,91.35-15.4,166.41-.31-.71-.67-1.42-1-2.14.35.78.68,1.57,1,2.36,0,21.98,1.31,42.54,4.7,59-2.11,14.51-5.47,25.4-6,27.93-5.75,9.88-11.99,20.28-18.73,31.08-9.86,15.81-21.33,33.29-34.3,51.77,11.61-30.95,47.78-143.25,1.73-236.37,0,0-30.26,180.13-5.94,242.32-17.62,24.77-37.89,51.19-60.75,77.75,0-2.96-.02-6.42-.1-10.24,7.33-44.46,15.77-144.27-37.05-219.45,0,0-2.3,173.88,28.75,235.97-.08,1.49-.13,2.69-.16,3.52-23.7,26.81-49.99,53.56-78.76,78.71.04.11-.69.77-1.99,1.85-4.3,3.6-15.25,12.08-28.5,22.25v110.53h593.95V4.12H171.15Z"/>
  <g>
    <path d="M169.87,860.66c0-62.4,12.48-90.22,33.8-90.22s33.8,27.82,33.8,90.22-12.48,90.22-33.8,90.22-33.8-27.82-33.8-90.22ZM219.79,860.66c0-55.64-4.42-80.86-16.12-80.86s-16.12,25.22-16.12,80.86,4.42,80.86,16.12,80.86,16.12-25.22,16.12-80.86Z"/>
    <path d="M268.61,772.26h16.38v167.7h27.82v9.1h-44.2v-176.8Z"/>
    <path d="M342.75,772.26h16.38v176.8h-16.38v-176.8Z"/>
    <path d="M390.37,772.26h16.12l18.98,142.22,18.2-142.22h11.18l-25.48,176.8h-13.52l-25.48-176.8Z"/>
    <path d="M487.35,860.14h-7.28v-9.1h7.28v-78.78h42.9v9.1h-26.52v69.68h24.96v9.1h-24.96v79.82h27.82v9.1h-44.2v-88.92Z"/>
    <path d="M567.15,860.66c0-62.4,12.48-90.22,33.8-90.22s33.8,27.82,33.8,90.22-12.48,90.22-33.8,90.22-33.8-27.82-33.8-90.22ZM617.07,860.66c0-55.64-4.42-80.86-16.12-80.86s-16.12,25.22-16.12,80.86,4.42,80.86,16.12,80.86,16.12-25.22,16.12-80.86Z"/>
    <path d="M662.89,772.26h16.38v176.8h-16.38v-176.8Z"/>
    <path d="M715.31,772.26h16.38v167.7h27.82v9.1h-44.2v-176.8Z"/>
  </g>
</svg>